<svg xmlns="http://www.w3.org/2000/svg" width="36" height="43.306" viewBox="0 0 36 43.306"><defs><style>.a{fill:#fff;}.b{fill:#bcbcbc;}</style></defs><g transform="translate(0 0)"><path class="a" d="M34.555,15.844H27.718V8.807C27.718,3.951,23.358,0,18,0S8.281,3.951,8.281,8.807v7.037H1.444A1.445,1.445,0,0,0,0,17.289V29.762A13.559,13.559,0,0,0,13.543,43.305h8.913A13.559,13.559,0,0,0,36,29.762V17.289a1.445,1.445,0,0,0-1.445-1.444ZM11.17,8.807c0-3.264,3.064-5.919,6.829-5.919s6.83,2.655,6.83,5.919v7.037H11.17Z"/><path class="b" d="M173.359,301.072a1.445,1.445,0,0,0,1.444-1.445v-5.984a1.445,1.445,0,0,0-2.889,0v5.984A1.445,1.445,0,0,0,173.359,301.072Zm0,0" transform="translate(-155.359 -269.061)"/></g></svg>